<svg width="22" height="19" viewBox="0 0 22 19" fill="none" xmlns="http://www.w3.org/2000/svg">
<path d="M0.398291 3.00001C0.177371 3.00001 -0.00170898 3.1791 -0.00170898 3.40001C-0.00170898 3.62093 0.177371 3.80001 0.398291 3.80001H2.87329L4.97953 13.75C5.03063 13.9958 5.19483 14.2026 5.39829 14.2H15.3983C15.6096 14.203 15.804 14.0114 15.804 13.8C15.804 13.5887 15.6096 13.397 15.3983 13.4H5.72329L5.38579 11.8H16.1983C16.3774 11.798 16.5466 11.6623 16.5858 11.4875L17.9858 5.48753C18.0378 5.25538 17.8362 5.00173 17.5983 5.00003H3.94829L3.59205 3.31251C3.55241 3.13572 3.37947 2.99847 3.19829 3.00001H0.398291ZM4.11705 5.80003H7.66079L8.02953 8.00001H4.58579L4.11705 5.80003ZM8.46705 5.80003H12.7295L12.3608 8.00001H8.83579L8.46705 5.80003ZM13.5358 5.80003H17.0983L16.5858 8.00001H13.1671L13.5358 5.80003ZM4.75453 8.80001H8.16079L8.52953 11H5.21705L4.75453 8.80001ZM8.97329 8.80001H12.2233L11.8608 11H9.33579L8.97329 8.80001ZM13.0358 8.80001H16.3983L15.8795 11H12.6671L13.0358 8.80001ZM7.59829 15.4C6.60893 15.4 5.79829 16.2106 5.79829 17.2C5.79829 18.1894 6.60893 19 7.59829 19C8.58767 19 9.39829 18.1894 9.39829 17.2C9.39829 16.2106 8.58767 15.4 7.59829 15.4ZM13.1983 15.4C12.2089 15.4 11.3983 16.2106 11.3983 17.2C11.3983 18.1894 12.2089 19 13.1983 19C14.1877 19 14.9983 18.1894 14.9983 17.2C14.9983 16.2106 14.1877 15.4 13.1983 15.4ZM7.59829 16.2C8.15531 16.2 8.59829 16.643 8.59829 17.2C8.59829 17.757 8.15531 18.2 7.59829 18.2C7.04129 18.2 6.59829 17.757 6.59829 17.2C6.59829 16.643 7.04129 16.2 7.59829 16.2ZM13.1983 16.2C13.7553 16.2 14.1983 16.643 14.1983 17.2C14.1983 17.757 13.7553 18.2 13.1983 18.2C12.6413 18.2 12.1983 17.757 12.1983 17.2C12.1983 16.643 12.6413 16.2 13.1983 16.2Z" fill="#333333"/>
<ellipse cx="18.284" cy="4.14287" rx="3.42857" ry="3.42857" fill="#E2081E"/>
</svg>
