<svg width="16" height="16" viewBox="0 0 16 16" fill="none" xmlns="http://www.w3.org/2000/svg">
<path d="M12.0917 14.4133C11.505 14.5867 10.8117 14.6667 9.99836 14.6667H5.99836C5.18503 14.6667 4.4917 14.5867 3.90503 14.4133C4.0517 12.68 5.8317 11.3133 7.99836 11.3133C10.165 11.3133 11.945 12.68 12.0917 14.4133Z" stroke="#333333" stroke-width="0.6" stroke-linecap="round" stroke-linejoin="round"/>
<path d="M9.99821 1.33334H5.99821C2.66488 1.33334 1.33154 2.66668 1.33154 6.00001V10C1.33154 12.52 2.09154 13.9 3.90488 14.4133C4.05154 12.68 5.83154 11.3133 7.99821 11.3133C10.1649 11.3133 11.9449 12.68 12.0915 14.4133C13.9049 13.9 14.6649 12.52 14.6649 10V6.00001C14.6649 2.66668 13.3315 1.33334 9.99821 1.33334ZM7.99821 9.44667C6.67821 9.44667 5.61154 8.37335 5.61154 7.05335C5.61154 5.73335 6.67821 4.66668 7.99821 4.66668C9.31821 4.66668 10.3849 5.73335 10.3849 7.05335C10.3849 8.37335 9.31821 9.44667 7.99821 9.44667Z" stroke="#333333" stroke-width="0.6" stroke-linecap="round" stroke-linejoin="round"/>
</svg>
